<?xml version="1.0" encoding="UTF-8"?>
<svg width="32" height="32" version="1.1" xml:space="preserve" xmlns="http://www.w3.org/2000/svg" xmlns:xlink="http://www.w3.org/1999/xlink">
    <defs>        
        <linearGradient id="linearGradient11" x2="0" y1="392.36" y2="365.36" gradientTransform="translate(-33,-363.36)" gradientUnits="userSpaceOnUse"><stop stop-color="#fff" stop-opacity="0" offset="0"/><stop stop-color="#fff" stop-opacity=".15" offset="1"/></linearGradient>
        <linearGradient id="linearGradient8" x1="18.727" x2="25.758" y1="16.98" y2="23.848" gradientTransform="translate(3.0101,-8.0101)" gradientUnits="userSpaceOnUse"><stop stop-color="#060606" offset="0"/><stop stop-opacity="0" offset="1"/></linearGradient>
    </defs><g>
    <path d="m6.6411 1.9968h13.363l6.9884 7.0071v19.4c0 0.884-0.72853 1.5957-1.6335 1.5957h-18.718c-0.90494 0-1.6335-0.71167-1.6335-1.5957v-24.811c0-0.884 0.72853-1.5957 1.6335-1.5957z" fill="#000344" stop-color="#000000" style="-inkscape-stroke:none;font-variation-settings:normal;paint-order:stroke fill markers"/><path transform="scale(.9379 1.0662)" d="m22.514 16.292v1.6743l0.03748 0.74372c-0.17567-0.16312-0.35739-0.28769-0.5456-0.37553-0.18194-0.08783-0.40496-0.13189-0.66847-0.13189-0.33879 0-0.65887 0.09677-0.96001 0.29126-0.29487 0.19449-0.53648 0.47326-0.72469 0.83715-0.18194 0.36388-0.2728 0.79686-0.2728 1.2988 0 0.75913 0.17347 1.3521 0.51853 1.7787 0.34506 0.42662 0.80556 0.63931 1.3827 0.63931 0.25095 0 0.4905-0.05849 0.71636-0.17769 0.22586-0.1192 0.42202-0.26292 0.59142-0.43231h0.03748l0.07705 0.49826h0.89337v-6.6441zm-11.94 0.49334v6.155h1.0912v-2.2586h0.88504c0.44544 0 0.84399-0.07186 1.1953-0.21616 0.35761-0.1443 0.63638-0.36459 0.83714-0.65946 0.20704-0.29487 0.31028-0.66753 0.31028-1.1192 0-0.47681-0.10325-0.85419-0.31028-1.1302-0.20704-0.27605-0.48995-0.47431-0.84756-0.59351-0.35761-0.1192-0.76441-0.17769-1.2224-0.17769zm1.0912 0.87562h0.76218c0.45799 0 0.80285 0.07474 1.035 0.22532 0.2384 0.1443 0.35818 0.41153 0.35818 0.80051 0 0.37016-0.11358 0.64893-0.33944 0.83715-0.21958 0.18822-0.55825 0.2821-1.0162 0.2821h-0.79966zm5.5372 0.45429c-0.51445 0-0.92126 0.12929-1.2224 0.38652-0.30114 0.25723-0.45189 0.58872-0.45189 0.99652 0 0.24468 0.05989 0.45448 0.17909 0.63015 0.12548 0.16939 0.28448 0.31494 0.47896 0.43414 0.19449 0.11293 0.40512 0.2097 0.63098 0.29126 0.17567 0.06274 0.33466 0.12594 0.47896 0.18868 0.1443 0.06274 0.25994 0.13748 0.34777 0.22532 0.09411 0.08783 0.14161 0.19509 0.14161 0.32057 0 0.15684-0.05989 0.28719-0.17909 0.39384-0.1192 0.10666-0.30298 0.1612-0.55393 0.1612-0.23841 0-0.46557-0.03829-0.67888-0.11357-0.21331-0.07529-0.42186-0.19697-0.6289-0.36637l-0.48105 0.62099c0.22586 0.21331 0.49224 0.37906 0.79966 0.49826 0.31369 0.1192 0.63171 0.17952 0.95168 0.17952 0.38898 0 0.71525-0.0632 0.97875-0.18868 0.26978-0.13175 0.47213-0.3051 0.61016-0.51841 0.13802-0.21958 0.20824-0.46007 0.20824-0.72357 0-0.26977-0.06403-0.49295-0.1895-0.66862-0.1192-0.18194-0.28234-0.32854-0.48938-0.44147-0.20704-0.1192-0.42798-0.22069-0.66638-0.30225-0.19449-0.06274-0.36176-0.12122-0.49979-0.17769-0.13802-0.06274-0.24541-0.13171-0.3207-0.207-0.06901-0.08156-0.10204-0.18016-0.10204-0.29309 0-0.13802 0.05575-0.25683 0.16868-0.35721 0.11293-0.10038 0.2864-0.15021 0.51853-0.15021 0.18822 0 0.3658 0.0278 0.53519 0.08426s0.33667 0.14458 0.49979 0.26378l0.47896-0.61183c-0.18822-0.16312-0.4133-0.2953-0.6768-0.39568-0.2635-0.10666-0.55261-0.15937-0.8663-0.15937zm4.8405 1.0655c0.15684 0.05646 0.31379 0.15612 0.47063 0.30042v2.1561c-0.15057 0.17567-0.30338 0.30784-0.46022 0.39568-0.15685 0.08156-0.32618 0.1209-0.50812 0.1209-0.33251 0-0.59065-0.13034-0.77259-0.39384-0.18194-0.2635-0.2728-0.64377-0.2728-1.1394 0-0.32624 0.0475-0.60213 0.14161-0.82799 0.10038-0.22586 0.22841-0.39921 0.38525-0.51841 0.37854-0.27663 0.83187-0.15979 1.0162-0.09342z" fill="#9f9bf8" opacity=".90958" stroke-width=".23527"/><path d="m12.802 8.4081a0.94841 0.94841 0 0 0-0.94841 0.94841 0.94841 0.94841 0 0 0 0.94841 0.94841 0.94841 0.94841 0 0 0 0.94841-0.94841 0.94841 0.94841 0 0 0-0.94841-0.94841m0 0.63227a0.31614 0.31614 0 0 1 0.31614 0.31614 0.31614 0.31614 0 0 1-0.31614 0.31614 0.31614 0.31614 0 0 1-0.31614-0.31614 0.31614 0.31614 0 0 1 0.31614-0.31614m6.0066 0.63227-3.5407 3.5281-1.6439-1.6313-3.7936 3.7936h0.88897l1.9721-1.9487 0.89024-0.88771 0.98887 0.89656 0.69676 0.67527 3.5407-3.413 2.2724 2.1485h0.88898z" color="#000000" color-rendering="auto" fill="#6297a5" image-rendering="auto" shape-rendering="auto" stroke-width="1.2645"/></g><g fill-rule="evenodd">
        <path d="m20.379 8.7871 0.23438 0.20703 6.3789 6.3535 2e-3 -6.3457h-5.9863c-0.23341 0-0.44714-0.080137-0.61719-0.21289-0.0074-0.00165-0.01172-0.00195-0.01172-0.00195zm6.6152 0.21484v-0.00781h-0.0078z" fill="url(#linearGradient8)" opacity=".1" stop-color="#000000" style="-inkscape-stroke:none;font-variation-settings:normal"/>
        <path d="m5.1235 29.004c0.2301 0.55992 0.77578 0.96086 1.4238 0.99609h18.902c0.64804-0.03523 1.1937-0.43618 1.4238-0.99609z" opacity=".25" stop-color="#000000" style="-inkscape-stroke:none;font-variation-settings:normal"/>
        <path d="m5.1235 2.9925c0.2301-0.55992 0.77578-0.96086 1.4238-0.99609h13.457l1.3e-5 0.99609z" fill="#fff" opacity=".4" stop-color="#000000" style="-inkscape-stroke:none;font-variation-settings:normal"/>
    </g>
    <path d="m6.6411 1.9968h13.363l6.9884 7.0071v19.4c0 0.884-0.72853 1.5957-1.6335 1.5957h-18.718c-0.90494 0-1.6335-0.71167-1.6335-1.5957v-24.811c0-0.884 0.72853-1.5957 1.6335-1.5957z" fill="url(#linearGradient11)" stop-color="#000000" style="-inkscape-stroke:none;font-variation-settings:normal"/>
    <path d="m26.995 9.0014h-5.9863c-0.55559 0-1.0029-0.44728-1.0029-1.0029v-6.0044z" fill="#fff" opacity=".5" stop-color="#000000" style="-inkscape-stroke:none;font-variation-settings:normal"/>
    
</svg>
