<svg xmlns="http://www.w3.org/2000/svg" width="48" height="48" xmlns:v="https://vecta.io/nano"><defs><linearGradient id="A" x1="9.612" x2="35.323" y1="6.415" y2="32.665" gradientUnits="userSpaceOnUse"><stop stop-color="#fff" offset="0"/><stop offset="1" stop-color="#fff" stop-opacity="0"/></linearGradient><path id="B" d="M19.895 4.315v3.15h3.085v-1.05h1.028v-1.05H22.98v-1.05z"/><path id="C" d="M28.123 6.415v3.15h-3.085v-1.05H24.01v-1.05h1.028v-1.05z"/></defs><rect width="42" height="42" x="2.999" y="3" fill="#a260a1" rx="20.167" ry="20.899"/><path fill="#d9d5e8" d="M20.014 3.88s1.76-.281 4.034-.268a33.31 33.31 0 0 1 4.074.268v40.234s-1.535.279-4.144.268c-3.011-.012-3.964-.268-3.964-.268z"/><path fill="url(#A)" fill-rule="evenodd" d="M28.124 6.415v3.15h-3.085l3.085 3.15v1.05h-3.085l3.085 3.15v1.05h-3.085l3.085 3.15v1.05h-3.085l17.484 17.85v-18.9l-2.057-2.1zm-2.057 18.9v4.2h-1.028v4.2h-2.057l11.313 11.55h8.228v-3.15l-2.057-2.1z" opacity=".2"/><g fill="#a068a0"><use href="#B"/><use href="#C"/><use href="#B" y="4.2"/><use href="#C" y="4.2"/><use href="#B" y="8.4"/><use href="#C" y="8.4"/><use href="#B" y="12.6"/><use href="#C" y="12.6"/><use href="#B" y="16.8"/><path d="M21.953 25.315v4.2h1.028v4.2h2.057v-4.2h1.028v-4.2zm1.028 1.05h2.057v2.1h-2.057z"/></g></svg>