<svg xmlns="http://www.w3.org/2000/svg" width="48" height="48" xmlns:v="https://vecta.io/nano"><defs><linearGradient id="A" x1="10" x2="35" y1="7" y2="32" gradientUnits="userSpaceOnUse"><stop stop-color="#383e51"/><stop offset="1" stop-color="#655c6f" stop-opacity="0"/></linearGradient></defs><rect width="42" height="42" x="2.999" y="3" fill="#eeb01a" rx="20.167" ry="20.899"/><path fill="#442707" d="M20.014 3.24s1.76-.281 4.034-.268a33.31 33.31 0 0 1 4.074.268v41.431s-1.535.279-4.144.268c-3.011-.012-3.964-.268-3.964-.268z"/><path fill="url(#A)" fill-rule="evenodd" d="M28 7v3h-3l3 3v1h-3l3 3v1h-3l3 3v1h-3l17 17V21l-2-2zm-2 18v4h-1v4h-2l11 11h8v-3l-2-2z" opacity=".2" transform="matrix(1.02845 0 0 1.05 -.673 -1.2)"/><path d="M19.895 4.05V7.2h3.085V6.15h1.028V5.1H22.98V4.05zm8.228 2.1V9.3h-3.085V8.25H24.01V7.2h1.028V6.15zm-8.228 2.1v3.15h3.085v-1.05h1.028V9.3H22.98V8.25zm8.228 2.1v3.15h-3.085v-1.05H24.01V11.4h1.028v-1.05zm-8.228 2.1v3.15h3.085v-1.05h1.028V13.5H22.98v-1.05zm8.228 2.1v3.15h-3.085v-1.05H24.01V15.6h1.028v-1.05zm-8.228 2.1v3.15h3.085v-1.05h1.028V17.7H22.98v-1.05zm8.228 2.1v3.15h-3.085v-1.05H24.01V19.8h1.028v-1.05zm-8.228 2.1V24h3.085v-1.05h1.028V21.9H22.98v-1.05zm2.058 4.2v4.2h1.028v4.2h2.057v-4.2h1.028v-4.2zm1.028 1.05h2.057v2.1h-2.057z" fill="#eeb01a"/></svg>