<svg xmlns="http://www.w3.org/2000/svg" width="48" height="48" xmlns:v="https://vecta.io/nano"><defs><linearGradient id="A" x2="-51.07" x1="-51.07" href="#L"><stop stop-color="#c6cdd1" offset="0"/><stop stop-color="#e0e5e7" offset="1"/></linearGradient><linearGradient id="B" x2="-401.39" y1="45.304" y2="2.78" x1="-401.39" href="#L"><stop stop-color="#1d1e1e" offset="0"/><stop stop-color="#44484c" offset="1"/></linearGradient><linearGradient id="C" y1="506.8" y2="504.8" href="#A"/><linearGradient id="D" y1="508.8" y2="506.8" href="#A"/><linearGradient id="E" y1="507.8" y2="504.8" href="#A"/><linearGradient id="F" y1="33" y2="25" href="#A"/><linearGradient id="G" x1="10" x2="35" y1="7" y2="32" href="#L"><stop stop-color="#383e51" offset="0"/><stop stop-color="#655c6f" stop-opacity="0" offset="1"/></linearGradient><linearGradient id="H" x2="-436.05" y1="45" y2="3" href="#A" x1="-436.05"/><linearGradient id="I" x1="24.44" x2="24.44" y1="2.487" y2="45.342" href="#L"><stop stop-color="#7b8189" offset="0"/><stop stop-color="#4a4d4d" offset="1"/></linearGradient><path id="J" d="m404.57 504.8v3h3v-1h1v-1h-1v-1z"/><path id="K" d="m412.57 506.8v3h-3v-1h-1v-1h1v-1z"/><linearGradient id="L" gradientUnits="userSpaceOnUse"/></defs><rect x="2.999" y="3" width="42" height="42" rx="20.167" ry="20.899" fill="url(#H)" stroke="url(#I)"/><path d="M20.014 3.928c2.376-.384 5.834-.37 8.107 0v40.129c-2.41.414-6.306.377-8.107 0z" fill="url(#B)"/><path transform="matrix(1.0284 0 0 1.05 -.673 -1.2)" d="M28 7v3h-3l3 3v1h-3l3 3v1h-3l3 3v1h-3l17 17V21l-2-2zm-2 18v4h-1v4h-2l11 11h8v-3l-2-2z" fill="url(#G)" fill-rule="evenodd" opacity=".2"/><g transform="matrix(1.0284 0 0 1.05 -396.18 -525.99)"><use href="#J" fill="url(#C)"/><use href="#K" fill="url(#D)"/><use href="#J" y="4" fill="url(#C)"/><use href="#K" y="4" fill="url(#D)"/><use href="#J" y="8" fill="url(#C)"/><use href="#K" y="8" fill="url(#D)"/><use href="#J" y="12" fill="url(#C)"/><use href="#K" y="12" fill="url(#D)"/><use href="#J" y="16" fill="url(#E)"/></g><path transform="matrix(1.0284 0 0 1.05 -.673 -1.2)" d="m22 25v4h1v4h2v-4h1v-4zm1 1h2v2h-2z" fill="url(#F)"/></svg>