<?xml version="1.0" encoding="UTF-8"?>
<svg width="32" height="32" version="1.1" xml:space="preserve" xmlns="http://www.w3.org/2000/svg"><defs><linearGradient id="A" x1="386.57" x2="446.57" y1="522.46" y2="522.46" gradientUnits="userSpaceOnUse"><stop stop-color="#356d98" offset="0"/><stop stop-color="#30b0af" offset="1"/></linearGradient><linearGradient id="B" x1="386.97" x2="446.18" y1="514.6" y2="514.6" gradientUnits="userSpaceOnUse"><stop stop-color="#6f99d1" offset="0"/><stop stop-color="#ca86c5" offset="1"/></linearGradient></defs><path d="m0.99853 25.823v1.189c0 0.9755 0.8005 1.718 1.783 1.718h26.434c0.985 0 1.783-0.742 1.783-1.718v-1.1885" fill="#346073"/><path transform="matrix(.49987 0 0 .49987 -192.23 -241.83)" d="M416.09 497.005c-.88 0-1.922-.516-2.317-1.148l-1.77-2.884c-.393-.631-1.435-1.147-2.315-1.148l-19.27-.027c-1.946-.003-3.44 1.416-3.44 3.166l-.012 39.848h59.217v-35.24c0-1.554-.914-2.567-2.515-2.567z" fill="url(#B)"/><path d="M28.964 13.415H3.225V9.8c0-.591.434-1.205 1.259-1.205h23.123c.839 0 1.358.613 1.358 1.205z" fill="#f0f0f0"/><path transform="matrix(.49987 0 0 .49987 -192.23 -241.83)" d="m445.11 507.56h-57.084c-1.7302 0-3.5818 1.5782-3.4594 3.1468l2.0018 25.653c0.15178 1.9451 1.601 3.436 3.566 3.436h52.867c1.97 0 3.4123-1.7948 3.566-3.7408l2.0018-25.347c0.12387-1.5685-1.7302-3.1479-3.4594-3.1479" fill="url(#A)"/></svg>
