<svg xmlns="http://www.w3.org/2000/svg" viewBox="0 0 32 32" xmlns:v="https://vecta.io/nano"><defs><linearGradient id="A" x1="1.783" y1="16.543" x2="30.205" y2="16.543" gradientUnits="userSpaceOnUse"><stop offset="0" stop-color="#306892"/><stop offset="1" stop-color="#2b9b9b"/></linearGradient><linearGradient id="B" x1="1.178" y1="6.55" x2="30.575" y2="6.55" gradientUnits="userSpaceOnUse"><stop offset="0" stop-color="#6696d1"/><stop offset="1" stop-color="#ca86c5"/></linearGradient><linearGradient id="C" x1="14.964" y1="29.674" x2="14.964" y2="16.002" gradientUnits="userSpaceOnUse"><stop offset="0" stop-color="#4dbcb6"/><stop offset="1" stop-color="#abdcdc"/></linearGradient></defs><g transform="matrix(1.036252 0 0 1.011097 -.579809 -.177098)"><path d="M2.742 6.528v2.841c-1.136 0-.947 1.365-.947 1.894v12.693c0 2.267.947 3.023 3.788 3.023h20.834c2.82 0 3.788-.756 3.788-3.023V9.484c0-1.157-.775-2.009-1.894-2.009 0-2.841-13.893-.417-13.893-.417" fill="url(#A)"/><g fill-rule="evenodd"><path d="M5.395 2C2.961 2 2 3.033 2 4.707V9h10.347l2-2h14.689c0-2.919-.677-3-4-3H16c-.981 0-1.068-2-3.068-2z" fill="url(#B)" transform="matrix(.946989 0 0 .946989 .847843 .846033)"/><path d="M2.494 26.219c.509.421 1.195.751 3.089.751h20.834c1.754 0 2.385-.252 3.053-.751z" opacity=".404" fill="#252c32"/></g><g transform="matrix(.917471 0 0 .946989 1.321038 .769509)"><g transform="rotate(90)" fill="#2c6c6b"><rect width="13" height="7" x="17" y="-11" rx="1" ry="1.384" opacity=".4"/><rect width="13" height="7" x="17" y="-28" rx="1" ry="1.384" opacity=".4"/></g><path d="M5.356 16c-.762 0-1.364.503-1.35 1.163L4 28c0 .554.558 1 1.252 1h4.496c.694 0 1.252-.446 1.252-1v-6.408h10V28c0 .554.558 1 1.252 1h4.496c.694 0 1.313-.446 1.313-1l-.002-10.735c.023-.687-.579-1.265-1.356-1.265z" fill="url(#C)"/></g></g></svg>