<svg xmlns="http://www.w3.org/2000/svg" width="64" height="64" xmlns:v="https://vecta.io/nano"><style><![CDATA[.B{color-interpolation-filters:sRGB}]]></style><defs><linearGradient id="A" y1="34.101" y2="20.04" x2="18.182" x1="18.182" spreadMethod="pad" href="#R"><stop offset="0" stop-color="#424242"/><stop offset="1" stop-color="#211d27"/></linearGradient><linearGradient id="B" y1="36.525" y2="41.051" x2="33.293" x1="33.293" spreadMethod="pad" href="#R"><stop offset="0"/><stop offset="1" stop-color="#505757"/></linearGradient><linearGradient id="C" y1="533.74" x2="407.885" y2="524.712" x1="407.542" spreadMethod="pad" href="#F"><stop offset="0" stop-color="#395071"/><stop offset="1" stop-color="#9ca7c1"/></linearGradient><linearGradient id="D" y1="533.98" x2="392.571" y2="524.687" x1="392.571" spreadMethod="pad" href="#F"><stop offset="0" stop-color="#395071"/><stop offset="1" stop-color="#9ca7c1"/></linearGradient><path id="E" d="M406.785 524.823c-2.449.705-3.863 3.262-3.158 5.711s3.262 3.863 5.711 3.158 3.863-3.262 3.158-5.711-3.262-3.863-5.711-3.158z"/><linearGradient id="F" href="#R"/><filter id="G" x="0" y="0" width="1" height="1" class="B"><feColorMatrix values="1.04 0 0 0.06936 -0.02 0 1.04 0 0.06936 -0.02 0 0 1.04 0.06936 -0.02 0 0 0 1 0" result="A"/><feColorMatrix values="0 0 0 -1 0 0 0 0 -1 0 0 0 0 -1 0 0 0 0 1 0"/><feColorMatrix values="0.998 0 0 0.067932 0.001 0 0.998 0 0.067932 0.001 0 0 0.998 0.067932 0.001 0 0 0 1 0" in="A" result="A"/><feColorMatrix values="0 0 0 -1 0 0 0 0 -1 0 0 0 0 -1 0 0 0 0 1 0"/><feColorMatrix values="1.06 0 0 0.04532 -0.03 0 1.06 0 0.04532 -0.03 0 0 1.06 0.04532 -0.03 0 0 0 1 0" in="A" result="A"/><feColorMatrix values="0 0 0 -1 0 0 0 0 -1 0 0 0 0 -1 0 0 0 0 1 0"/><feColorMatrix values="0.976627 0 0 0.0360734 0.0116866 0 0.976627 0 0.0360734 0.0116866 0 0 0.976627 0.0360734 0.0116866 0 0 0 1 0" in="A"/></filter><filter id="H" x="0" y="0" width="1" height="1" class="B"><feColorMatrix values="1.04 0 0 0.06936 -0.02 0 1.04 0 0.06936 -0.02 0 0 1.04 0.06936 -0.02 0 0 0 1 0" result="A"/><feColorMatrix values="0 0 0 -1 0 0 0 0 -1 0 0 0 0 -1 0 0 0 0 1 0"/><feColorMatrix values="1.06 0 0 0.04532 -0.03 0 1.06 0 0.04532 -0.03 0 0 1.06 0.04532 -0.03 0 0 0 1 0" in="A" result="A"/><feColorMatrix values="0 0 0 -1 0 0 0 0 -1 0 0 0 0 -1 0 0 0 0 1 0"/><feColorMatrix values="0.976627 0 0 0.0360734 0.0116866 0 0.976627 0 0.0360734 0.0116866 0 0 0.976627 0.0360734 0.0116866 0 0 0 1 0" in="A"/></filter><filter id="I" x="0" y="0" width="1" height="1" class="B"><feColorMatrix values="1.04 0 0 0.06936 -0.02 0 1.04 0 0.06936 -0.02 0 0 1.04 0.06936 -0.02 0 0 0 1 0" result="A"/><feColorMatrix values="0 0 0 -1 0 0 0 0 -1 0 0 0 0 -1 0 0 0 0 1 0"/><feColorMatrix values="1.02 0 0 -0.0909 -0.01 0 1.02 0 -0.0909 -0.01 0 0 1.02 -0.0909 -0.01 0 0 0 1 0" in="A" result="A"/><feColorMatrix values="0 0 0 -1 0 0 0 0 -1 0 0 0 0 -1 0 0 0 0 1 0"/><feComposite in2="A" operator="arithmetic" k1="0" k2="1" in="A"/><feColorMatrix values="1" type="saturate" result="D"/><feFlood flood-opacity="1" flood-color="#9c9bb0"/><feBlend in2="D" mode="multiply"/><feBlend mode="screen"/><feColorMatrix values="1" type="saturate"/><feComposite in2="A" operator="in" k2="1" result="A"/><feColorMatrix values="0 0 0 -1 0 0 0 0 -1 0 0 0 0 -1 0 0 0 0 1 0"/><feColorMatrix values="1.046 0 0 0.0148335 -0.023 0 1.046 0 0.0148335 -0.023 0 0 1.046 0.0148335 -0.023 0 0 0 1 0" in="A"/></filter><filter id="J" x="0" y="0" width="1" height="1" class="B"><feColorMatrix values="1.04 0 0 0.06936 -0.02 0 1.04 0 0.06936 -0.02 0 0 1.04 0.06936 -0.02 0 0 0 1 0" result="A"/><feColorMatrix values="0 0 0 -1 0 0 0 0 -1 0 0 0 0 -1 0 0 0 0 1 0"/><feColorMatrix values="0.976627 0 0 0.0360734 0.0116866 0 0.976627 0 0.0360734 0.0116866 0 0 0.976627 0.0360734 0.0116866 0 0 0 1 0" in="A"/></filter><radialGradient id="K" cx="31.938" cy="49.52" fx="31.938" fy="49.52" r="28.18" gradientTransform="matrix(1.8831239,5.1750452e-8,0,0.59805069,-28.31207,16.472323)" y1="50.747" y2="29.818" x2="32.404" x1="32.566" spreadMethod="pad" href="#R"><stop offset="0" stop-color="#7b9eb3"/><stop offset="1" stop-color="#121b3c"/></radialGradient><linearGradient id="L" x1="-50514.678" y1="998.047" x2="-50514.678" y2="349.572" spreadMethod="pad" href="#R"><stop offset="0" stop-color="#7d91ab"/><stop offset="1" stop-color="#536585"/></linearGradient><linearGradient id="M" y1="34.284" y2="43.883" x2="37.712" x1="37.941" spreadMethod="pad" href="#R"><stop offset="0" stop-color="#a1bac7"/><stop offset="1" stop-color="#66758e"/></linearGradient><radialGradient id="N" cx="47.089" cy="31.862" fx="47.089" fy="31.862" r="2.352" gradientTransform="matrix(1,0,0,1.0126019,0,-0.3178382)" href="#R"><stop offset="0" stop-color="#1ac41a"/><stop offset="1" stop-color="#179c17"/></radialGradient><radialGradient id="O" cx="47.089" cy="31.862" fx="47.089" fy="31.862" r="2.352" gradientTransform="matrix(1,0,0,1.0126019,-0.0848894,-10.198551)" href="#R"><stop offset="0" stop-color="#388afe"/><stop offset="1" stop-color="#195b9d"/></radialGradient><radialGradient id="P" cx="47.089" cy="31.862" fx="47.089" fy="31.862" r="2.352" gradientTransform="matrix(1,0,0,1.0126019,4.8776819,-5.2868006)" href="#R"><stop offset="0" stop-color="#ebbf00"/><stop offset="1" stop-color="#d6430b"/></radialGradient><radialGradient id="Q" cx="47.089" cy="31.862" fx="47.089" fy="31.862" r="2.352" gradientTransform="matrix(1,0,0,1.0126019,-5.0498426,-5.2733272)" href="#R"><stop offset="0" stop-color="#ff4d12"/><stop offset="1" stop-color="#d60000"/></radialGradient><linearGradient id="R" gradientUnits="userSpaceOnUse"/></defs><path d="M5.031 26.978l-1.01 18.184c-.092.376-.14.76-.142 1.146 0 2.668 2.164 4.832 4.832 4.832a4.84 4.84 0 0 0 3.714-1.746l.004.008 11.932-15.178zm54.056 0l-19.33 7.248 11.932 15.178.004-.008a4.84 4.84 0 0 0 3.714 1.746c2.668 0 4.832-2.164 4.832-4.832a4.81 4.81 0 0 0-.142-1.146z" fill="url(#K)" filter="url(#G)"/><path d="M19.529 14.896C11.683 13.302 5.031 18.97 5.031 26.978A14.5 14.5 0 0 0 27.529 39.06h9.062a14.5 14.5 0 0 0 22.496-12.082c0-8.006-6.606-13.432-14.498-12.082l-10.174 2.066h-4.714z" fill="url(#L)" filter="url(#H)"/><g transform="matrix(2 0 0 2 -769.14286 -1031.596)"><use href="#E" fill="url(#C)" filter="url(#J)"/><use href="#E" x="-14.946" fill="url(#D)" filter="url(#J)"/></g><path d="M25.705 34.226c-2.668 0-4.832 2.164-4.832 4.832s2.164 4.832 4.832 4.832 4.832-2.164 4.832-4.832-2.164-4.832-4.832-4.832zm12.708 0c-2.668 0-4.832 2.164-4.832 4.832s2.164 4.832 4.832 4.832 4.832-2.164 4.832-4.832-2.164-4.832-4.832-4.832z" fill="url(#M)" filter="url(#I)"/><path d="M14.697 19.728v4.832H9.865v4.832h4.832v4.832h4.832v-4.832h4.832V24.56h-4.832v-4.832z" fill="url(#A)"/><path d="M25.705 36.642a2.42 2.42 0 0 0-2.416 2.416 2.42 2.42 0 0 0 2.416 2.416 2.42 2.42 0 0 0 2.416-2.416 2.42 2.42 0 0 0-2.416-2.416zm12.708 0a2.42 2.42 0 0 0-2.416 2.416 2.42 2.42 0 0 0 2.416 2.416 2.42 2.42 0 0 0 2.416-2.416 2.42 2.42 0 0 0-2.416-2.416z" fill="url(#B)"/><g fill-rule="evenodd"><ellipse cx="47.089" cy="31.945" rx="2.352" ry="2.381" fill="url(#N)"/><ellipse cx="47.004" cy="22.065" rx="2.352" ry="2.381" fill="url(#O)"/><ellipse cx="51.967" cy="26.976" rx="2.352" ry="2.381" fill="url(#P)"/><ellipse cx="42.039" cy="26.99" rx="2.352" ry="2.381" fill="url(#Q)"/></g></svg>