<svg xmlns="http://www.w3.org/2000/svg" width="64" height="64" xmlns:v="https://vecta.io/nano"><defs><linearGradient id="A" y1="51.14" y2="12.48" x2="-5.349" x1="-5.349" href="#N"><stop offset="0" stop-color="#7b94b3"/><stop offset="1" stop-color="#13052f"/></linearGradient><linearGradient id="B" y1="34.226" y2="19.728" x2="-934.581" x1="-934.581" href="#N"><stop offset="0" stop-color="#3b3b3b"/><stop offset="1" stop-color="#2e2937"/></linearGradient><linearGradient id="C" y1="36.642" y2="12.48" x2="-934.581" x1="-934.581" href="#N"><stop offset="0" stop-color="#7d91ab"/><stop offset="1" stop-color="#535c85"/></linearGradient><linearGradient id="D" y1="34.284" y2="43.883" x2="37.712" x1="37.941" spreadMethod="pad" href="#O"><stop offset="0" stop-color="#98a8bd"/><stop offset="1" stop-color="#6a83a6"/></linearGradient><linearGradient id="E" y1="41.474" y2="36.642" x2="-5.349" x1="-5.349" href="#N"><stop offset="0"/><stop offset="1" stop-color="#505757"/></linearGradient><linearGradient id="F" y1="528.078" y2="525.662" x2="-82.719" x1="-82.719" href="#N"><stop stop-color="#0040b6" offset="0"/><stop offset="1" stop-color="#0090ff"/></linearGradient><linearGradient id="G" y1="527.605" y2="526.291" x2="408.864" x1="407.436" href="#N"><stop stop-color="#26a500" offset="0"/><stop offset="1" stop-color="#005e00"/></linearGradient><linearGradient id="H" y1="528.079" y2="525.662" x2="-85.136" x1="-85.136" href="#N"><stop stop-color="#ab0000" offset="0"/><stop offset="1" stop-color="#ff4f3a"/></linearGradient><linearGradient id="I" y1="528.079" y2="525.662" x2="-80.303" x1="-80.303" href="#N"><stop stop-color="#d10013" offset="0"/><stop offset="1" stop-color="#ff972e"/></linearGradient><linearGradient id="J" y1="533.74" x2="407.885" y2="524.712" x1="407.542" spreadMethod="pad" href="#O"><stop offset="0" stop-color="#556587"/><stop offset="1" stop-color="#91a9bb"/></linearGradient><linearGradient id="K" y1="533.98" x2="392.571" y2="524.687" x1="392.571" spreadMethod="pad" href="#O"><stop offset="0" stop-color="#526285"/><stop offset="1" stop-color="#93abbd"/></linearGradient><path id="L" d="M406.785 524.823c-2.449.705-3.863 3.262-3.158 5.711s3.262 3.863 5.711 3.158 3.863-3.262 3.158-5.711-3.262-3.863-5.711-3.158z"/><path id="M" d="M408.074 525.662a1.21 1.21 0 0 0-1.208 1.208 1.21 1.21 0 0 0 1.208 1.208 1.21 1.21 0 0 0 1.208-1.208 1.21 1.21 0 0 0-1.208-1.208z"/><linearGradient id="N" href="#O"/><linearGradient id="O" gradientUnits="userSpaceOnUse"/></defs><path d="M5.031 26.978l-1.01 18.184c-.092.376-.14.76-.142 1.146 0 2.668 2.164 4.832 4.832 4.832a4.84 4.84 0 0 0 3.714-1.746l.004.008 11.932-15.178zm54.056 0l-19.33 7.248 11.932 15.178.004-.008a4.84 4.84 0 0 0 3.714 1.746c2.668 0 4.832-2.164 4.832-4.832a4.81 4.81 0 0 0-.142-1.146z" fill="url(#A)"/><path d="M19.529 14.896C11.683 13.302 5.031 18.97 5.031 26.978A14.5 14.5 0 0 0 27.529 39.06h9.062a14.5 14.5 0 0 0 22.496-12.082c0-8.006-6.606-13.432-14.498-12.082l-10.174 2.066h-4.714z" fill="url(#C)"/><use href="#L" fill="url(#J)" transform="matrix(2 0 0 2 -769.14286 -1031.596)"/><use href="#M" fill="url(#G)" transform="matrix(-1.414214 1.414214 -1.414214 -1.414214 1369.2156 199.86121)"/><g transform="matrix(2 0 0 2 -769.14286 -1031.596)"><use href="#M" x="-2.416" y="2.416" fill="url(#I)"/><use href="#M" x="2.417" y="2.416" fill="url(#H)"/></g><use href="#M" y="4.833" fill="url(#F)" transform="matrix(2 0 0 2 -769.14286 -1041.2527)"/><use href="#L" x="-14.946" fill="url(#K)" transform="matrix(2 0 0 2 -769.14286 -1031.596)"/><path d="M14.697 19.728v4.832H9.865v4.832h4.832v4.832h4.832v-4.832h4.832V24.56h-4.832v-4.832z" fill="url(#B)"/><path d="M25.705 34.226c-2.668 0-4.832 2.164-4.832 4.832s2.164 4.832 4.832 4.832 4.832-2.164 4.832-4.832-2.164-4.832-4.832-4.832zm12.708 0c-2.668 0-4.832 2.164-4.832 4.832s2.164 4.832 4.832 4.832 4.832-2.164 4.832-4.832-2.164-4.832-4.832-4.832z" fill="url(#D)"/><path d="M25.705 36.642a2.42 2.42 0 0 0-2.416 2.416 2.42 2.42 0 0 0 2.416 2.416 2.42 2.42 0 0 0 2.416-2.416 2.42 2.42 0 0 0-2.416-2.416zm12.708 0a2.42 2.42 0 0 0-2.416 2.416 2.42 2.42 0 0 0 2.416 2.416 2.42 2.42 0 0 0 2.416-2.416 2.42 2.42 0 0 0-2.416-2.416z" fill="url(#E)"/></svg>