<svg xmlns="http://www.w3.org/2000/svg" width="64" height="64" xmlns:v="https://vecta.io/nano"><defs><linearGradient id="A" y1="33.616" y2="20.202" x2="16" x1="16.323" spreadMethod="pad" href="#K"><stop offset="0" stop-color="#a9a9a9"/><stop offset="1" stop-color="#fff"/></linearGradient><linearGradient id="B" y1="36.525" y2="41.051" x2="33.293" x1="33.293" spreadMethod="pad" href="#H"><stop offset="0" stop-color="#c1c1c1"/><stop offset="1" stop-color="#fff"/></linearGradient><path id="C" d="M408.074 525.662a1.21 1.21 0 0 0-1.208 1.208 1.21 1.21 0 0 0 1.208 1.208 1.21 1.21 0 0 0 1.208-1.208 1.21 1.21 0 0 0-1.208-1.208z"/><filter id="D" x="0" y="0" width="1" height="1" color-interpolation-filters="sRGB"><feColorMatrix values="1.04 0 0 0.06936 -0.02 0 1.04 0 0.06936 -0.02 0 0 1.04 0.06936 -0.02 0 0 0 1 0" result="A"/><feColorMatrix values="0 0 0 -1 0 0 0 0 -1 0 0 0 0 -1 0 0 0 0 1 0"/><feColorMatrix values="0.998 0 0 0.067932 0.001 0 0.998 0 0.067932 0.001 0 0 0.998 0.067932 0.001 0 0 0 1 0" in="A"/></filter><filter id="E" x="0" y="0" width="1" height="1" color-interpolation-filters="sRGB"><feColorMatrix values="1.04 0 0 0.06936 -0.02 0 1.04 0 0.06936 -0.02 0 0 1.04 0.06936 -0.02 0 0 0 1 0"/></filter><radialGradient id="F" cx="31.915" cy="46.773" fx="31.915" fy="46.773" r="28.18" gradientTransform="matrix(1.8200594,2.6008949e-8,0,0.30057071,-26.256372,30.429353)" spreadMethod="pad" href="#H" gradientUnits="userSpaceOnUse"><stop offset="0" stop-color="#4a5278"/><stop offset="1" stop-color="#0b1a61"/></radialGradient><linearGradient id="G" x1="31.541" y1="38.855" x2="31.541" y2="15.999" spreadMethod="pad" href="#K"><stop offset="0" stop-color="#404f8e"/><stop offset="1" stop-color="#293983"/></linearGradient><linearGradient id="H" href="#K"/><linearGradient id="I" x1="37.712" y1="34.769" y2="43.883" x2="37.712" spreadMethod="pad" href="#K"><stop offset="0" stop-color="#6e7bb3"/><stop offset="1" stop-color="#293983"/></linearGradient><linearGradient id="J" x1="400.794" y1="524.606" x2="400.794" y2="533.859" spreadMethod="pad" href="#K"><stop offset="0" stop-color="#607999"/><stop offset="1" stop-color="#2a387c"/></linearGradient><linearGradient id="K" gradientUnits="userSpaceOnUse"/></defs><path d="M5.031 26.978l-1.01 18.184c-.092.376-.14.76-.142 1.146 0 2.668 2.164 4.832 4.832 4.832a4.84 4.84 0 0 0 3.714-1.746l.004.008 11.932-15.178zm54.056 0l-19.33 7.248 11.932 15.178.004-.008a4.84 4.84 0 0 0 3.714 1.746c2.668 0 4.832-2.164 4.832-4.832a4.81 4.81 0 0 0-.142-1.146z" fill="url(#F)" filter="url(#D)"/><path d="M19.529 14.896C11.683 13.302 5.031 18.97 5.031 26.978A14.5 14.5 0 0 0 27.529 39.06h9.062a14.5 14.5 0 0 0 22.496-12.082c0-8.006-6.606-13.432-14.498-12.082l-10.174 2.066h-4.714z" fill="url(#G)" filter="url(#E)"/><path d="M393.215 524.643c-.454-.01-.917.048-1.376.181-2.449.705-3.863 3.262-3.158 5.711s3.262 3.862 5.711 3.157 3.863-3.262 3.158-5.711c-.573-1.99-2.368-3.296-4.335-3.338zm14.946 0c-.454-.01-.917.048-1.376.181-2.449.705-3.863 3.262-3.158 5.711s3.262 3.862 5.711 3.157 3.863-3.262 3.158-5.711c-.573-1.99-2.368-3.296-4.335-3.338z" transform="matrix(2 0 0 2 -769.14286 -1031.596)" fill="url(#J)" filter="url(#E)"/><path d="M25.705 34.226c-2.668 0-4.832 2.164-4.832 4.832s2.164 4.832 4.832 4.832 4.832-2.164 4.832-4.832-2.164-4.832-4.832-4.832zm12.708 0c-2.668 0-4.832 2.164-4.832 4.832s2.164 4.832 4.832 4.832 4.832-2.164 4.832-4.832-2.164-4.832-4.832-4.832z" fill="url(#I)" filter="url(#E)"/><use href="#C" fill="#00b4ff" transform="matrix(-1.414214 1.414214 -1.414214 -1.414214 1369.2156 199.86121)"/><g transform="matrix(2 0 0 2 -769.14286 -1031.596)"><use href="#C" x="-2.416" y="2.416" fill="#ff009e"/><use href="#C" x="2.417" y="2.416" fill="red"/></g><use href="#C" y="4.833" fill="#00e400" transform="matrix(2 0 0 2 -769.14286 -1041.2527)"/><path d="M14.697 19.728v4.832H9.865v4.832h4.832v4.832h4.832v-4.832h4.832V24.56h-4.832v-4.832z" fill="url(#A)"/><path d="M25.705 36.642a2.42 2.42 0 0 0-2.416 2.416 2.42 2.42 0 0 0 2.416 2.416 2.42 2.42 0 0 0 2.416-2.416 2.42 2.42 0 0 0-2.416-2.416zm12.708 0a2.42 2.42 0 0 0-2.416 2.416 2.42 2.42 0 0 0 2.416 2.416 2.42 2.42 0 0 0 2.416-2.416 2.42 2.42 0 0 0-2.416-2.416z" fill="url(#B)"/></svg>