<svg xmlns="http://www.w3.org/2000/svg" width="64" height="64" xmlns:v="https://vecta.io/nano"><style><![CDATA[.E{filter:url(#O)}.F{color-interpolation-filters:sRGB}]]></style><defs><linearGradient id="A" y1="20.202" y2="33.778" x2="16.646" x1="16.808" spreadMethod="pad" href="#S"><stop offset="0" stop-color="#3b3b3b"/><stop offset="1" stop-color="#2e2937"/></linearGradient><linearGradient id="B" spreadMethod="pad" href="#S"><stop offset="0" stop-color="#7d91ab"/><stop offset="1" stop-color="#535c85"/></linearGradient><linearGradient id="C" y1="36.525" y2="41.051" x2="33.293" x1="33.293" spreadMethod="pad" href="#S"><stop offset="0"/><stop offset="1" stop-color="#505757"/></linearGradient><linearGradient id="D" y1="528.078" y2="525.662" x2="-82.719" x1="-82.719" href="#L"><stop stop-color="#0040b6" offset="0"/><stop offset="1" stop-color="#0090ff"/></linearGradient><linearGradient id="E" y1="527.605" y2="526.291" x2="408.864" x1="407.436" href="#L"><stop stop-color="#26a500" offset="0"/><stop offset="1" stop-color="#005e00"/></linearGradient><linearGradient id="F" y1="528.079" y2="525.662" x2="-85.136" x1="-85.136" href="#L"><stop stop-color="#ab0000" offset="0"/><stop offset="1" stop-color="#ff4f3a"/></linearGradient><linearGradient id="G" y1="528.079" y2="525.662" x2="-80.303" x1="-80.303" href="#L"><stop stop-color="#d10013" offset="0"/><stop offset="1" stop-color="#ff972e"/></linearGradient><linearGradient id="H" y1="533.74" x2="407.885" y2="524.712" x1="407.542" spreadMethod="pad" href="#M"><stop offset="0" stop-color="#556587"/><stop offset="1" stop-color="#91a9bb"/></linearGradient><linearGradient id="I" y1="533.98" x2="392.571" y2="524.687" x1="392.571" spreadMethod="pad" href="#M"><stop offset="0" stop-color="#526285"/><stop offset="1" stop-color="#93abbd"/></linearGradient><path id="J" d="M406.785 524.823c-2.449.705-3.863 3.262-3.158 5.711s3.262 3.863 5.711 3.158 3.863-3.262 3.158-5.711-3.262-3.863-5.711-3.158z"/><path id="K" d="M408.074 525.662a1.21 1.21 0 0 0-1.208 1.208 1.21 1.21 0 0 0 1.208 1.208 1.21 1.21 0 0 0 1.208-1.208 1.21 1.21 0 0 0-1.208-1.208z"/><linearGradient id="L" href="#M"/><linearGradient id="M" href="#S"/><filter id="N" x="0" y="0" width="1" height="1" class="F"><feColorMatrix values="1.04 0 0 0.06936 -0.02 0 1.04 0 0.06936 -0.02 0 0 1.04 0.06936 -0.02 0 0 0 1 0" result="C"/><feColorMatrix values="0 0 0 -1 0 0 0 0 -1 0 0 0 0 -1 0 0 0 0 1 0"/><feColorMatrix values="0.998 0 0 0.067932 0.001 0 0.998 0 0.067932 0.001 0 0 0.998 0.067932 0.001 0 0 0 1 0" in="C"/></filter><filter id="O" x="0" y="0" width="1" height="1" class="F"><feColorMatrix values="1.04 0 0 0.06936 -0.02 0 1.04 0 0.06936 -0.02 0 0 1.04 0.06936 -0.02 0 0 0 1 0"/></filter><radialGradient id="P" cx="32.059" cy="47.227" fx="32.059" fy="47.227" r="28.18" gradientTransform="matrix(1.5848968,4.3554821e-8,0,0.50333842,-18.751207,20.945316)" href="#B" gradientUnits="userSpaceOnUse"><stop offset="0" stop-color="#7b94b3"/><stop offset="1" stop-color="#16123c"/></radialGradient><linearGradient href="#B" id="Q" x1="-50514.678" y1="998.047" x2="-50514.678" y2="349.572"/><filter id="R" x="0" y="0" width="1" height="1" class="F"><feComposite in2="SourceGraphic" operator="arithmetic" k1="0" k2="1"/><feColorMatrix values="1" type="saturate" result="C"/><feFlood flood-opacity="1" flood-color="#9bb0b0"/><feBlend in2="C" mode="multiply"/><feBlend mode="screen"/><feColorMatrix values="1" type="saturate"/><feComposite in2="SourceGraphic" operator="in" k2="1"/></filter><linearGradient id="S" gradientUnits="userSpaceOnUse"/><linearGradient id="T" x1="37.712" y1="34.769" y2="43.883" x2="37.712" spreadMethod="pad" gradientUnits="userSpaceOnUse"><stop offset="0" stop-color="#98a8bd"/><stop offset="1" stop-color="#577092"/></linearGradient></defs><g filter="url(#R)"><path d="M5.031 26.978l-1.01 18.184c-.092.376-.14.76-.142 1.146 0 2.668 2.164 4.832 4.832 4.832a4.84 4.84 0 0 0 3.714-1.746l.004.008 11.932-15.178zm54.056 0l-19.33 7.248 11.932 15.178.004-.008a4.84 4.84 0 0 0 3.714 1.746c2.668 0 4.832-2.164 4.832-4.832a4.81 4.81 0 0 0-.142-1.146z" fill="url(#P)" filter="url(#N)"/><path d="M19.529 14.896C11.683 13.302 5.031 18.97 5.031 26.978A14.5 14.5 0 0 0 27.529 39.06h9.062a14.5 14.5 0 0 0 22.496-12.082c0-8.006-6.606-13.432-14.498-12.082l-10.174 2.066h-4.714z" fill="url(#Q)" class="E"/></g><g transform="matrix(2 0 0 2 -769.14286 -1031.596)"><use href="#J" fill="url(#H)" class="E"/><use href="#J" x="-14.946" fill="url(#I)" class="E"/></g><path d="M25.705 34.226c-2.668 0-4.832 2.164-4.832 4.832s2.164 4.832 4.832 4.832 4.832-2.164 4.832-4.832-2.164-4.832-4.832-4.832zm12.708 0c-2.668 0-4.832 2.164-4.832 4.832s2.164 4.832 4.832 4.832 4.832-2.164 4.832-4.832-2.164-4.832-4.832-4.832z" fill="url(#T)" class="E"/><use href="#K" fill="url(#E)" transform="matrix(-1.414214 1.414214 -1.414214 -1.414214 1369.2156 199.86121)"/><g transform="matrix(2 0 0 2 -769.14286 -1031.596)"><use href="#K" x="-2.416" y="2.416" fill="url(#G)"/><use href="#K" x="2.417" y="2.416" fill="url(#F)"/></g><use href="#K" y="4.833" fill="url(#D)" transform="matrix(2 0 0 2 -769.14286 -1041.2527)"/><path d="M14.697 19.728v4.832H9.865v4.832h4.832v4.832h4.832v-4.832h4.832V24.56h-4.832v-4.832z" fill="url(#A)"/><path d="M25.705 36.642a2.42 2.42 0 0 0-2.416 2.416 2.42 2.42 0 0 0 2.416 2.416 2.42 2.42 0 0 0 2.416-2.416 2.42 2.42 0 0 0-2.416-2.416zm12.708 0a2.42 2.42 0 0 0-2.416 2.416 2.42 2.42 0 0 0 2.416 2.416 2.42 2.42 0 0 0 2.416-2.416 2.42 2.42 0 0 0-2.416-2.416z" fill="url(#C)"/></svg>